<svg width="64" height="48" viewBox="0 0 64 48" fill="none" xmlns="http://www.w3.org/2000/svg">
  <defs>
    <linearGradient id="goldenTicketGradient" x1="0%" y1="0%" x2="100%" y2="100%">
      <stop offset="0%" style="stop-color:#FFD700;stop-opacity:1" />
      <stop offset="50%" style="stop-color:#FFA500;stop-opacity:1" />
      <stop offset="100%" style="stop-color:#B8860B;stop-opacity:1" />
    </linearGradient>
    <linearGradient id="ticketShadow" x1="0%" y1="0%" x2="100%" y2="100%">
      <stop offset="0%" style="stop-color:#8B7D3A;stop-opacity:0.3" />
      <stop offset="100%" style="stop-color:#654321;stop-opacity:0.5" />
    </linearGradient>
  </defs>
  
  <!-- Shadow -->
  <rect x="2" y="2" width="60" height="44" rx="4" fill="url(#ticketShadow)"/>
  
  <!-- Main ticket body -->
  <rect x="0" y="0" width="60" height="44" rx="4" fill="url(#goldenTicketGradient)" stroke="#B8860B" stroke-width="1"/>
  
  <!-- Perforated edge -->
  <line x1="42" y1="0" x2="42" y2="44" stroke="#B8860B" stroke-width="1" stroke-dasharray="2,2"/>
  
  <!-- Ticket holes -->
  <circle cx="42" cy="8" r="2" fill="#000000" opacity="0.2"/>
  <circle cx="42" cy="16" r="2" fill="#000000" opacity="0.2"/>
  <circle cx="42" cy="24" r="2" fill="#000000" opacity="0.2"/>
  <circle cx="42" cy="32" r="2" fill="#000000" opacity="0.2"/>
  <circle cx="42" cy="40" r="2" fill="#000000" opacity="0.2"/>
  
  <!-- Ticket text area -->
  <rect x="4" y="8" width="34" height="2" fill="#B8860B" opacity="0.6"/>
  <rect x="4" y="12" width="28" height="2" fill="#B8860B" opacity="0.6"/>
  <rect x="4" y="16" width="32" height="2" fill="#B8860B" opacity="0.6"/>
  
  <!-- Stub text area -->
  <rect x="46" y="12" width="12" height="1.5" fill="#B8860B" opacity="0.6"/>
  <rect x="46" y="16" width="10" height="1.5" fill="#B8860B" opacity="0.6"/>
  <rect x="46" y="20" width="8" height="1.5" fill="#B8860B" opacity="0.6"/>
  
  <!-- Golden shine effect -->
  <rect x="2" y="2" width="56" height="8" rx="2" fill="url(#goldenTicketGradient)" opacity="0.3"/>
  <rect x="2" y="2" width="56" height="4" rx="2" fill="#FFFFFF" opacity="0.2"/>
</svg>
