<svg width="48" height="48" viewBox="0 0 48 48" fill="none" xmlns="http://www.w3.org/2000/svg">
  <defs>
    <!-- Gradients -->
    <linearGradient id="blazersRed" x1="0%" y1="0%" x2="100%" y2="100%">
      <stop offset="0%" style="stop-color:#E03A3E;stop-opacity:1" />
      <stop offset="100%" style="stop-color:#B8282D;stop-opacity:1" />
    </linearGradient>
    
    <linearGradient id="roseGold" x1="0%" y1="0%" x2="100%" y2="100%">
      <stop offset="0%" style="stop-color:#FF69B4;stop-opacity:1" />
      <stop offset="100%" style="stop-color:#B76E79;stop-opacity:1" />
    </linearGradient>
    
    <linearGradient id="silverAccent" x1="0%" y1="0%" x2="100%" y2="100%">
      <stop offset="0%" style="stop-color:#C4CED4;stop-opacity:1" />
      <stop offset="100%" style="stop-color:#F0F0F0;stop-opacity:1" />
    </linearGradient>
    
    <!-- Filters -->
    <filter id="glow" x="-50%" y="-50%" width="200%" height="200%">
      <feGaussianBlur stdDeviation="2" result="coloredBlur"/>
      <feMerge> 
        <feMergeNode in="coloredBlur"/>
        <feMergeNode in="SourceGraphic"/>
      </feMerge>
    </filter>
  </defs>
  
  <!-- Background Circle -->
  <circle cx="24" cy="24" r="22" fill="url(#blazersRed)" opacity="0.1" stroke="url(#blazersRed)" stroke-width="1"/>
  
  <!-- Ticket Stub Shape -->
  <path d="M8 14 L40 14 Q42 14 42 16 L42 20 Q40 22 40 24 Q42 26 42 28 L42 32 Q42 34 40 34 L8 34 Q6 34 6 32 L6 28 Q8 26 8 24 Q6 22 6 20 L6 16 Q6 14 8 14 Z" 
        fill="url(#blazersRed)" 
        filter="url(#glow)"
        opacity="0.9"/>
  
  <!-- Perforated Edge -->
  <line x1="20" y1="14" x2="20" y2="34" stroke="url(#silverAccent)" stroke-width="1" stroke-dasharray="2,2" opacity="0.7"/>
  
  <!-- Basketball Icon -->
  <circle cx="14" cy="24" r="4" fill="none" stroke="url(#silverAccent)" stroke-width="1.5" opacity="0.8"/>
  <path d="M10 24 Q14 20 18 24 Q14 28 10 24" fill="none" stroke="url(#silverAccent)" stroke-width="1"/>
  <path d="M14 20 L14 28" stroke="url(#silverAccent)" stroke-width="1"/>
  
  <!-- Rose Accent -->
  <path d="M32 20 Q34 18 36 20 Q38 22 36 24 Q34 26 32 24 Q30 22 32 20 Z" 
        fill="url(#roseGold)" 
        opacity="0.8"/>
  <path d="M33 21 Q34 20 35 21 Q36 22 35 23 Q34 24 33 23 Q32 22 33 21 Z" 
        fill="url(#roseGold)" 
        opacity="0.6"/>
  
  <!-- Ticket Text Lines -->
  <rect x="24" y="18" width="12" height="1" fill="url(#silverAccent)" opacity="0.6" rx="0.5"/>
  <rect x="24" y="21" width="8" height="1" fill="url(#silverAccent)" opacity="0.5" rx="0.5"/>
  <rect x="24" y="27" width="10" height="1" fill="url(#silverAccent)" opacity="0.6" rx="0.5"/>
  <rect x="24" y="30" width="6" height="1" fill="url(#silverAccent)" opacity="0.5" rx="0.5"/>
  
  <!-- Sparkle Effects -->
  <circle cx="12" cy="16" r="0.5" fill="url(#roseGold)" opacity="0.8">
    <animate attributeName="opacity" values="0.8;0.3;0.8" dur="2s" repeatCount="indefinite"/>
  </circle>
  <circle cx="36" cy="32" r="0.5" fill="url(#roseGold)" opacity="0.6">
    <animate attributeName="opacity" values="0.6;0.2;0.6" dur="3s" repeatCount="indefinite"/>
  </circle>
  <circle cx="40" cy="18" r="0.5" fill="url(#silverAccent)" opacity="0.7">
    <animate attributeName="opacity" values="0.7;0.3;0.7" dur="2.5s" repeatCount="indefinite"/>
  </circle>
</svg>
