<svg width="32" height="32" viewBox="0 0 32 32" fill="none" xmlns="http://www.w3.org/2000/svg">
  <defs>
    <linearGradient id="weirdGradient" x1="0%" y1="0%" x2="100%" y2="100%">
      <stop offset="0%" style="stop-color:#E03A3E;stop-opacity:1" />
      <stop offset="100%" style="stop-color:#B8282D;stop-opacity:1" />
    </linearGradient>
  </defs>
  
  <!-- Jackalope/deer body -->
  <ellipse cx="16" cy="20" rx="6" ry="4" fill="url(#weirdGradient)" stroke="#000000" stroke-width="0.5"/>
  
  <!-- Head -->
  <ellipse cx="16" cy="14" rx="4" ry="3" fill="url(#weirdGradient)" stroke="#000000" stroke-width="0.5"/>
  
  <!-- Antlers (more angular/weird) -->
  <path d="M13 12L11 8L9 10" fill="none" stroke="#000000" stroke-width="1" stroke-linecap="round"/>
  <path d="M13 12L11 8L13 6" fill="none" stroke="#000000" stroke-width="1" stroke-linecap="round"/>
  <path d="M19 12L21 8L23 10" fill="none" stroke="#000000" stroke-width="1" stroke-linecap="round"/>
  <path d="M19 12L21 8L19 6" fill="none" stroke="#000000" stroke-width="1" stroke-linecap="round"/>
  
  <!-- Eyes (quirky) -->
  <circle cx="14" cy="14" r="1" fill="#000000"/>
  <circle cx="18" cy="14" r="1" fill="#000000"/>
  <circle cx="14.3" cy="13.7" r="0.3" fill="#FFFFFF"/>
  <circle cx="18.3" cy="13.7" r="0.3" fill="#FFFFFF"/>
  
  <!-- Nose -->
  <ellipse cx="16" cy="16" rx="0.5" ry="0.3" fill="#000000"/>
  
  <!-- Legs (simple) -->
  <rect x="12" y="22" width="1" height="4" fill="#000000"/>
  <rect x="15" y="22" width="1" height="4" fill="#000000"/>
  <rect x="17" y="22" width="1" height="4" fill="#000000"/>
  <rect x="20" y="22" width="1" height="4" fill="#000000"/>
  
  <!-- Tail -->
  <circle cx="22" cy="20" r="1.5" fill="url(#weirdGradient)" stroke="#000000" stroke-width="0.5"/>
  
  <!-- Oregon state outline (subtle) -->
  <path d="M2 28L4 26L6 28L8 26L10 28L8 30L6 28L4 30L2 28Z" fill="none" stroke="#E03A3E" stroke-width="0.5" opacity="0.6"/>
</svg>
