<svg width="48" height="48" viewBox="0 0 48 48" fill="none" xmlns="http://www.w3.org/2000/svg">
  <defs>
    <linearGradient id="roseGradient" x1="0%" y1="0%" x2="100%" y2="100%">
      <stop offset="0%" style="stop-color:#E03A3E;stop-opacity:1" />
      <stop offset="100%" style="stop-color:#B8282D;stop-opacity:1" />
    </linearGradient>
  </defs>
  
  <!-- Outer petals - sharp and angular -->
  <path d="M24 8L28 12L32 8L36 12L32 16L28 12L24 8Z" fill="url(#roseGradient)" stroke="#000000" stroke-width="1"/>
  <path d="M40 24L36 20L40 16L44 20L40 24L36 28L40 32L36 36L32 32L36 28L40 24Z" fill="url(#roseGradient)" stroke="#000000" stroke-width="1"/>
  <path d="M24 40L28 36L32 40L28 44L24 40L20 36L16 40L12 36L16 32L20 36L24 40Z" fill="url(#roseGradient)" stroke="#000000" stroke-width="1"/>
  <path d="M8 24L12 28L8 32L4 28L8 24L12 20L8 16L12 12L16 16L12 20L8 24Z" fill="url(#roseGradient)" stroke="#000000" stroke-width="1"/>
  
  <!-- Inner petals - more angular -->
  <path d="M24 14L26 16L28 14L30 16L28 18L26 16L24 14Z" fill="#000000" stroke="#E03A3E" stroke-width="0.5"/>
  <path d="M34 24L32 22L34 20L36 22L34 24L32 26L34 28L32 30L30 28L32 26L34 24Z" fill="#000000" stroke="#E03A3E" stroke-width="0.5"/>
  <path d="M24 34L26 32L28 34L26 36L24 34L22 32L20 34L18 32L20 30L22 32L24 34Z" fill="#000000" stroke="#E03A3E" stroke-width="0.5"/>
  <path d="M14 24L16 26L14 28L12 26L14 24L16 22L14 20L16 18L18 20L16 22L14 24Z" fill="#000000" stroke="#E03A3E" stroke-width="0.5"/>
  
  <!-- Center core - sharp diamond -->
  <path d="M24 20L26 22L24 24L22 22L24 20Z" fill="url(#roseGradient)" stroke="#000000" stroke-width="1"/>
  
  <!-- Sharp thorny stem -->
  <path d="M24 40L23 42L24 44L25 42L24 40Z" fill="#000000"/>
  <path d="M22 41L21 42L22 43L22 41Z" fill="url(#roseGradient)"/>
  <path d="M26 41L27 42L26 43L26 41Z" fill="url(#roseGradient)"/>
</svg>
