<svg width="32" height="32" viewBox="0 0 32 32" fill="none" xmlns="http://www.w3.org/2000/svg">
  <!-- Gothic rose favicon - high contrast for small sizes -->
  <rect width="32" height="32" fill="#000000"/>
  
  <!-- Simplified angular rose design -->
  <path d="M16 6L18 8L20 6L22 8L20 10L18 8L16 6Z" fill="#E03A3E"/>
  <path d="M26 16L24 14L26 12L28 14L26 16L24 18L26 20L24 22L22 20L24 18L26 16Z" fill="#E03A3E"/>
  <path d="M16 26L18 24L20 26L18 28L16 26L14 24L12 26L10 24L12 22L14 24L16 26Z" fill="#E03A3E"/>
  <path d="M6 16L8 18L6 20L4 18L6 16L8 14L6 12L8 10L10 12L8 14L6 16Z" fill="#E03A3E"/>
  
  <!-- Center -->
  <rect x="15" y="15" width="2" height="2" fill="#E03A3E"/>
</svg>
